<svg width="299" height="43" viewBox="0 0 299 43" fill="none" xmlns="http://www.w3.org/2000/svg">
<path d="M166.792 20.8204C166.792 18.9063 168.2 17.6021 169.961 17.6021C171.175 17.6021 171.935 18.1895 172.417 18.9183L171.629 19.3383C171.45 19.0574 171.203 18.8268 170.911 18.6682C170.619 18.5097 170.292 18.4283 169.961 18.4317C168.71 18.4317 167.746 19.4213 167.746 20.8215C167.746 22.2125 168.71 23.2113 169.961 23.2113C170.292 23.2148 170.619 23.1335 170.91 22.9752C171.202 22.8168 171.449 22.5865 171.629 22.3058L172.416 22.7258C171.925 23.4535 171.174 24.0421 169.961 24.0421C168.201 24.041 166.792 22.734 166.792 20.8204Z" fill="black"/>
<path d="M175.289 19.3076C176.632 19.3076 177.466 20.3626 177.466 21.7443V21.9494H173.926C173.991 22.7131 174.547 23.3497 175.446 23.3497C175.918 23.3497 176.438 23.1631 176.771 22.8178L177.16 23.3688C176.715 23.8052 176.085 24.0408 175.362 24.0408C174.028 24.0408 173.045 23.0884 173.045 21.6696C173.047 20.3626 173.982 19.3076 175.289 19.3076ZM173.917 21.3428H176.65C176.632 20.7455 176.234 19.9988 175.289 19.9988C174.39 19.9988 173.963 20.727 173.917 21.3428Z" fill="black"/>
<path d="M181.532 21.0439C181.532 20.2977 181.153 20.0544 180.578 20.0544C180.059 20.0544 179.587 20.3719 179.346 20.709V23.9274H178.512V19.42H179.346V20.0544C179.542 19.8243 179.785 19.6388 180.058 19.51C180.331 19.3813 180.628 19.3123 180.93 19.3076C181.876 19.3076 182.366 19.8117 182.366 20.7641V23.9279H181.532V21.0439Z" fill="black"/>
<path d="M183.858 22.93V20.1573H183.118V19.4203H183.86V18.1875H184.693V19.4203H185.602V20.1573H184.693V22.7413C184.693 23.0587 184.842 23.2922 185.126 23.2922C185.295 23.2953 185.458 23.2317 185.581 23.1149L185.793 23.7493C185.617 23.9179 185.36 24.039 184.922 24.039C184.218 24.0412 183.858 23.6397 183.858 22.93Z" fill="black"/>
<path d="M186.525 19.4204H187.358V20.111C187.701 19.6632 188.23 19.3179 188.82 19.3179V20.1672C188.726 20.1472 188.63 20.1377 188.533 20.1388C188.116 20.1388 187.551 20.4563 187.356 20.7934V23.93H186.522L186.525 19.4204Z" fill="black"/>
<path d="M189.378 21.6696C189.378 20.3719 190.25 19.3076 191.64 19.3076C193.039 19.3076 193.901 20.3719 193.901 21.6696C193.901 22.9788 193.039 24.0408 191.64 24.0408C190.25 24.0408 189.378 22.9766 189.378 21.6696ZM193.029 21.6696C193.029 20.8203 192.539 20.0544 191.64 20.0544C190.75 20.0544 190.25 20.8181 190.25 21.6696C190.25 22.5282 190.75 23.294 191.64 23.294C192.539 23.294 193.029 22.5282 193.029 21.6696Z" fill="black"/>
<path d="M197.513 22.3323C197.757 22.6085 198.057 22.8294 198.392 22.9807C198.727 23.132 199.091 23.2101 199.458 23.21C200.459 23.21 200.812 22.6962 200.812 22.2483C200.812 21.5938 200.108 21.4083 199.32 21.2032C198.329 20.9413 197.18 20.6522 197.18 19.3823C197.18 18.3557 198.078 17.6084 199.366 17.6084C200.321 17.6084 201.072 17.9166 201.618 18.4768L201.081 19.168C200.607 18.6639 199.959 18.4392 199.294 18.4392C198.608 18.4392 198.135 18.7943 198.135 19.3174C198.135 19.8771 198.803 20.0544 199.572 20.2508C200.582 20.5235 201.759 20.8388 201.759 22.1643C201.759 23.1353 201.092 24.0408 199.423 24.0408C198.321 24.0408 197.515 23.6393 196.987 23.0508L197.513 22.3323Z" fill="black"/>
<path d="M202.682 18.1315C202.683 17.9885 202.74 17.8518 202.841 17.7506C202.941 17.6494 203.077 17.5917 203.219 17.5898C203.361 17.59 203.498 17.6471 203.599 17.7487C203.7 17.8502 203.756 17.9879 203.756 18.1315C203.756 18.2022 203.742 18.2721 203.715 18.3372C203.688 18.4023 203.648 18.4613 203.598 18.5108C203.548 18.5603 203.489 18.5993 203.424 18.6256C203.359 18.6519 203.289 18.6649 203.219 18.6639C203.078 18.6642 202.942 18.6085 202.842 18.5088C202.741 18.4092 202.684 18.2736 202.682 18.1315ZM202.812 19.42H203.645V23.9284H202.812V19.42Z" fill="black"/>
<path d="M207.99 21.0439C207.99 20.2977 207.611 20.0544 207.036 20.0544C206.517 20.0544 206.044 20.3719 205.803 20.709V23.9274H204.97V19.42H205.805V20.0544C206.002 19.8243 206.245 19.6388 206.518 19.5101C206.791 19.3814 207.088 19.3124 207.389 19.3076C208.335 19.3076 208.825 19.8117 208.825 20.7641V23.9279H207.992L207.99 21.0439Z" fill="black"/>
<path d="M210.51 24.4701C210.88 24.8994 211.335 25.0674 211.946 25.0674C212.641 25.0674 213.336 24.732 213.336 23.779V23.1915C212.994 23.6393 212.465 23.9661 211.863 23.9661C210.704 23.9661 209.871 23.107 209.871 21.6325C209.871 20.1853 210.704 19.3076 211.863 19.3076C212.447 19.3076 212.975 19.588 213.336 20.0713V19.4167H214.17V23.7479C214.17 25.2976 213.049 25.7553 211.946 25.7553C211.196 25.7553 210.647 25.5966 210.112 25.0833L210.51 24.4701ZM213.336 20.7172C213.104 20.3533 212.595 20.0544 212.095 20.0544C211.26 20.0544 210.741 20.709 210.741 21.6325C210.741 22.5658 211.26 23.2193 212.095 23.2193C212.595 23.2193 213.104 22.9111 213.336 22.5467V20.7172Z" fill="black"/>
<path d="M218.514 23.3125C218.172 23.6857 217.606 24.0408 216.92 24.0408C215.966 24.0408 215.494 23.5553 215.494 22.6029V19.4199H216.327V22.323C216.327 23.0698 216.698 23.294 217.273 23.294C217.792 23.294 218.264 22.9951 218.514 22.659V19.4199H219.348V23.9284H218.514V23.3125Z" fill="black"/>
<path d="M220.672 17.7026H221.507V23.9289H220.673L220.672 17.7026Z" fill="black"/>
<path d="M225.592 23.434C225.24 23.8262 224.73 24.0411 224.13 24.0411C223.389 24.0411 222.573 23.5371 222.573 22.547C222.573 21.5204 223.379 21.0742 224.13 21.0742C224.732 21.0742 225.251 21.27 225.592 21.6715V20.9231C225.592 20.3629 225.137 20.0268 224.499 20.0268C223.989 20.0268 223.553 20.2232 223.155 20.6269L222.794 20.0476C223.294 19.5528 223.905 19.3101 224.628 19.3101C225.603 19.3101 226.426 19.7399 226.426 20.8876V23.9309H225.592V23.434ZM225.592 22.1739C225.342 21.8379 224.906 21.6606 224.443 21.6606C223.841 21.6606 223.414 22.0244 223.414 22.5568C223.414 23.0892 223.841 23.4525 224.443 23.4525C224.906 23.4525 225.342 23.2752 225.592 22.9397V22.1739Z" fill="black"/>
<path d="M227.759 19.4204H228.593V20.111C228.935 19.6632 229.464 19.3179 230.057 19.3179V20.1672C229.963 20.1472 229.866 20.1377 229.77 20.1388C229.353 20.1388 228.788 20.4563 228.593 20.7934V23.93H227.759V19.4204Z" fill="black"/>
<path d="M236.468 23.2868C236.298 23.5178 236.078 23.7062 235.825 23.8373C235.571 23.9685 235.291 24.0388 235.006 24.0429C233.838 24.0429 233.002 23.1559 233.002 21.6809C233.002 20.2337 233.837 19.3097 235.006 19.3097C235.58 19.3097 236.109 19.59 236.468 20.0733V17.7026H237.302V23.9289H236.468V23.2868ZM236.468 20.7192C236.237 20.3554 235.736 20.0564 235.227 20.0564C234.392 20.0564 233.873 20.7377 233.873 21.6809C233.873 22.6148 234.392 23.2961 235.227 23.2961C235.736 23.2961 236.237 23.0064 236.468 22.6415V20.7192Z" fill="black"/>
<path d="M240.599 19.3076C241.943 19.3076 242.776 20.3626 242.776 21.7443V21.9494H239.237C239.302 22.7131 239.858 23.3497 240.757 23.3497C241.229 23.3497 241.749 23.1631 242.082 22.8178L242.471 23.3688C242.026 23.8052 241.396 24.0408 240.673 24.0408C239.339 24.0408 238.356 23.0884 238.356 21.6696C238.356 20.3626 239.293 19.3076 240.599 19.3076ZM239.228 21.3428H241.961C241.943 20.7455 241.544 19.9988 240.599 19.9988C239.699 19.9988 239.274 20.727 239.228 21.3428Z" fill="black"/>
<path d="M246.232 17.7026H247.158V23.9289H246.232V17.7026Z" fill="black"/>
<path d="M251.54 21.0439C251.54 20.2977 251.161 20.0544 250.586 20.0544C250.067 20.0544 249.594 20.3719 249.353 20.709V23.9274H248.52V19.42H249.353V20.0544C249.55 19.8242 249.793 19.6387 250.066 19.51C250.34 19.3813 250.637 19.3123 250.938 19.3076C251.884 19.3076 252.374 19.8117 252.374 20.7641V23.9279H251.54V21.0439Z" fill="black"/>
<path d="M253.04 19.4199H253.93L255.329 22.9591L256.728 19.421H257.627L255.783 23.9295H254.884L253.04 19.4199Z" fill="black"/>
<path d="M260.268 19.3076C261.611 19.3076 262.445 20.3626 262.445 21.7443V21.9494H258.905C258.97 22.7131 259.526 23.3497 260.425 23.3497C260.898 23.3497 261.417 23.1631 261.75 22.8178L262.139 23.3688C261.694 23.8052 261.064 24.0408 260.341 24.0408C259.007 24.0408 258.025 23.0884 258.025 21.6696C258.025 20.3626 258.961 19.3076 260.268 19.3076ZM258.896 21.3428H261.628C261.61 20.7455 261.211 19.9988 260.266 19.9988C259.369 19.9988 258.942 20.727 258.896 21.3428Z" fill="black"/>
<path d="M263.5 22.7246C263.806 23.0606 264.399 23.3688 265.001 23.3688C265.632 23.3688 265.965 23.107 265.965 22.7246C265.965 22.2762 265.456 22.1273 264.882 21.9963C264.124 21.8191 263.232 21.6145 263.232 20.643C263.232 19.924 263.843 19.3076 264.937 19.3076C265.706 19.3076 266.262 19.588 266.642 19.9518L266.271 20.5399C266.012 20.2229 265.513 19.9895 264.946 19.9895C264.379 19.9895 264.029 20.2131 264.029 20.5775C264.029 20.9692 264.511 21.1001 265.066 21.2321C265.845 21.4094 266.771 21.6238 266.771 22.6602C266.771 23.4348 266.141 24.0419 264.965 24.0419C264.214 24.0419 263.557 23.8085 263.103 23.3415L263.5 22.7246Z" fill="black"/>
<path d="M267.993 22.93V20.1573H267.251V19.4203H267.993V18.1875H268.829V19.4203H269.738V20.1573H268.829V22.7413C268.829 23.0587 268.978 23.2922 269.265 23.2922C269.434 23.2953 269.597 23.2317 269.719 23.1149L269.932 23.7493C269.756 23.9179 269.499 24.039 269.061 24.039C268.354 24.0412 267.993 23.6397 267.993 22.93Z" fill="black"/>
<path d="M270.531 18.1315C270.533 17.9884 270.59 17.8516 270.691 17.7504C270.791 17.6492 270.927 17.5915 271.069 17.5898C271.211 17.59 271.348 17.6471 271.449 17.7487C271.549 17.8503 271.606 17.9879 271.606 18.1315C271.606 18.2021 271.592 18.272 271.565 18.3371C271.538 18.4022 271.498 18.4612 271.448 18.5108C271.398 18.5603 271.339 18.5993 271.274 18.6256C271.209 18.6519 271.139 18.6649 271.069 18.6639C270.928 18.6644 270.792 18.6087 270.691 18.509C270.591 18.4094 270.533 18.2737 270.531 18.1315ZM270.661 19.42H271.495V23.9284H270.661V19.42Z" fill="black"/>
<path d="M273.18 24.4701C273.551 24.8994 274.006 25.0674 274.617 25.0674C275.312 25.0674 276.007 24.732 276.007 23.779V23.1915C275.664 23.6393 275.136 23.9661 274.533 23.9661C273.375 23.9661 272.541 23.107 272.541 21.6325C272.541 20.1853 273.375 19.3076 274.533 19.3076C275.117 19.3076 275.646 19.588 276.007 20.0713V19.4167H276.843V23.7479C276.843 25.2976 275.722 25.7553 274.619 25.7553C273.869 25.7553 273.32 25.5966 272.784 25.0833L273.18 24.4701ZM276.007 20.7172C275.775 20.3533 275.266 20.0544 274.765 20.0544C273.931 20.0544 273.412 20.709 273.412 21.6325C273.412 22.5658 273.93 23.2193 274.765 23.2193C275.266 23.2193 275.775 22.9111 276.007 22.5467V20.7172Z" fill="black"/>
<path d="M280.926 23.434C280.574 23.8262 280.064 24.0411 279.464 24.0411C278.722 24.0411 277.907 23.5371 277.907 22.547C277.907 21.5204 278.713 21.0742 279.464 21.0742C280.066 21.0742 280.585 21.27 280.926 21.6715V20.9231C280.926 20.3629 280.472 20.0268 279.833 20.0268C279.323 20.0268 278.888 20.2232 278.489 20.6269L278.128 20.0476C278.628 19.5528 279.239 19.3101 279.963 19.3101C280.937 19.3101 281.76 19.7399 281.76 20.8876V23.9309H280.926V23.434ZM280.926 22.1739C280.676 21.8379 280.24 21.6606 279.777 21.6606C279.175 21.6606 278.748 22.0244 278.748 22.5568C278.748 23.0892 279.175 23.4525 279.777 23.4525C280.24 23.4525 280.676 23.2752 280.926 22.9397V22.1739Z" fill="black"/>
<path d="M285.095 19.3076C285.939 19.3076 286.449 19.6627 286.774 20.1013L286.216 20.6135C285.946 20.2317 285.586 20.0533 285.134 20.0533C284.253 20.0533 283.688 20.7346 283.688 21.6685C283.688 22.6024 284.253 23.293 285.134 23.293C285.346 23.2981 285.557 23.2495 285.746 23.1517C285.935 23.0538 286.097 22.9098 286.216 22.7327L286.772 23.2461C286.447 23.6824 285.939 24.0397 285.093 24.0397C283.74 24.0397 282.814 23.0219 282.814 21.6685C282.814 20.3151 283.743 19.3076 285.095 19.3076Z" fill="black"/>
<path d="M287.558 18.1315C287.56 17.9884 287.617 17.8516 287.717 17.7504C287.818 17.6492 287.954 17.5915 288.096 17.5898C288.238 17.59 288.375 17.6471 288.476 17.7487C288.576 17.8503 288.633 17.9879 288.633 18.1315C288.633 18.2021 288.619 18.272 288.592 18.3371C288.564 18.4022 288.525 18.4612 288.475 18.5108C288.425 18.5603 288.366 18.5993 288.3 18.6256C288.235 18.6519 288.166 18.6649 288.096 18.6639C287.955 18.6644 287.819 18.6087 287.718 18.509C287.618 18.4094 287.56 18.2737 287.558 18.1315ZM287.688 19.42H288.522V23.9284H287.688V19.42Z" fill="black"/>
<path d="M289.567 21.6695C289.567 20.3718 290.438 19.3075 291.829 19.3075C293.228 19.3075 294.089 20.3718 294.089 21.6695C294.089 22.9787 293.228 24.0407 291.829 24.0407C290.44 24.0407 289.567 22.9765 289.567 21.6695ZM293.218 21.6695C293.218 20.8201 292.727 20.0543 291.829 20.0543C290.938 20.0543 290.438 20.818 290.438 21.6695C290.438 22.5281 290.938 23.2939 291.829 23.2939C292.729 23.2939 293.219 22.5281 293.219 21.6695H293.218ZM291.494 18.7386L292.831 17.395H293.655L292.107 18.7397L291.494 18.7386Z" fill="black"/>
<path d="M298.166 21.0439C298.166 20.2977 297.787 20.0544 297.212 20.0544C296.693 20.0544 296.22 20.3719 295.979 20.709V23.9274H295.144V19.42H295.977V20.0544C296.174 19.8242 296.417 19.6387 296.69 19.51C296.964 19.3813 297.261 19.3123 297.562 19.3076C298.508 19.3076 298.998 19.8117 298.998 20.7641V23.9279H298.164L298.166 21.0439Z" fill="black"/>
<path d="M168.998 28.6411C170.341 28.6411 171.175 29.6961 171.175 31.0778V31.2829H167.635C167.701 32.0466 168.257 32.6832 169.156 32.6832C169.628 32.6832 170.147 32.4966 170.481 32.1513L170.869 32.7023C170.425 33.1387 169.795 33.3743 169.072 33.3743C167.738 33.3743 166.755 32.4219 166.755 31.0031C166.755 29.6961 167.691 28.6411 168.998 28.6411ZM167.627 30.6763H170.36C170.341 30.0763 169.943 29.3323 168.998 29.3323C168.099 29.3323 167.673 30.0605 167.627 30.6763Z" fill="black"/>
<path d="M175.242 30.378C175.242 29.6317 174.863 29.3884 174.288 29.3884C173.769 29.3884 173.296 29.7059 173.055 30.043V33.2614H172.221V28.7535H173.055V29.3879C173.252 29.1577 173.495 28.9722 173.768 28.8435C174.041 28.7148 174.338 28.6458 174.64 28.6411C175.585 28.6411 176.076 29.1451 176.076 30.0976V33.2614H175.242V30.378Z" fill="black"/>
<path d="M181.162 33.2619V28.2019H179.354V27.0356H184.284V28.2019H182.487V33.2619H181.162Z" fill="black"/>
<path d="M183.904 31.0031C183.904 29.6939 184.858 28.6411 186.22 28.6411C187.554 28.6411 188.462 29.6497 188.462 31.1242V31.386H185.136C185.21 31.955 185.664 32.4312 186.424 32.4312C186.803 32.4312 187.332 32.2632 187.619 31.9833L188.138 32.747C187.693 33.1578 186.989 33.3727 186.294 33.3727C184.932 33.3743 183.904 32.4508 183.904 31.0031ZM186.22 29.5848C185.488 29.5848 185.173 30.1358 185.117 30.5836H187.323C187.295 30.1538 186.998 29.5843 186.22 29.5843V29.5848Z" fill="black"/>
<path d="M189.025 31.0031C189.025 29.6214 190.017 28.6411 191.398 28.6411C192.315 28.6411 192.871 29.0426 193.168 29.4533L192.399 30.1816C192.186 29.8641 191.862 29.6961 191.453 29.6961C190.74 29.6961 190.24 30.2187 190.24 31.0053C190.24 31.7919 190.74 32.3215 191.453 32.3215C191.638 32.3248 191.821 32.2823 191.986 32.1976C192.151 32.1129 192.293 31.9888 192.399 31.836L193.168 32.555C192.871 32.975 192.315 33.3765 191.398 33.3765C190.017 33.3743 189.025 32.3963 189.025 31.0031Z" fill="black"/>
<path d="M196.956 33.2621V30.5347C196.956 29.909 196.631 29.6941 196.132 29.6941C195.932 29.6964 195.736 29.7458 195.559 29.8382C195.382 29.9307 195.229 30.0637 195.113 30.2265V33.2599H193.936V28.7537H195.113V29.3417C195.308 29.1181 195.549 28.9398 195.819 28.8189C196.09 28.698 196.383 28.6374 196.678 28.6413C197.661 28.6413 198.133 29.2015 198.133 30.0792V33.2621H196.956Z" fill="black"/>
<path d="M199.013 31.0031C199.013 29.7239 199.902 28.6411 201.376 28.6411C202.859 28.6411 203.748 29.7239 203.748 31.0031C203.748 32.2915 202.859 33.3743 201.376 33.3743C199.903 33.3743 199.013 32.2915 199.013 31.0031ZM202.525 31.0031C202.525 30.3027 202.108 29.6939 201.376 29.6939C200.644 29.6939 200.239 30.3005 200.239 31.0031C200.239 31.7122 200.646 32.3194 201.376 32.3194C202.105 32.3194 202.525 31.7128 202.525 31.0031Z" fill="black"/>
<path d="M204.618 33.2619V27.0356H205.794V33.2619H204.618Z" fill="black"/>
<path d="M206.674 31.0031C206.674 29.7239 207.564 28.6411 209.037 28.6411C210.52 28.6411 211.409 29.7239 211.409 31.0031C211.409 32.2915 210.52 33.3743 209.037 33.3743C207.564 33.3743 206.674 32.2915 206.674 31.0031ZM210.186 31.0031C210.186 30.3027 209.769 29.6939 209.037 29.6939C208.305 29.6939 207.9 30.3005 207.9 31.0031C207.9 31.7122 208.308 32.3194 209.037 32.3194C209.767 32.3194 210.186 31.7128 210.186 31.0031Z" fill="black"/>
<path d="M214.734 33.2619L213.715 31.7416L212.687 33.263H211.382L212.966 30.9479L211.474 28.7545H212.79L213.716 30.145L214.631 28.7534H215.947L214.445 30.9468L216.049 33.2619H214.734Z" fill="black"/>
<path d="M217.458 28.0722H216.634L217.875 26.7275H218.958L217.458 28.0722ZM216.634 33.262V28.7535H217.81V33.262H216.634Z" fill="black"/>
<path d="M221.664 33.2619V32.7955C221.358 33.1593 220.83 33.3743 220.246 33.3743C219.533 33.3743 218.689 32.8888 218.689 31.8802C218.689 30.8257 219.533 30.4243 220.246 30.4243C220.842 30.4243 221.367 30.6201 221.664 30.9747V30.3681C221.664 29.911 221.275 29.612 220.682 29.612C220.194 29.6123 219.726 29.8029 219.375 30.1439L218.93 29.3507C219.477 28.8653 220.181 28.6416 220.886 28.6416C221.905 28.6416 222.841 29.0529 222.841 30.3501V33.2624L221.664 33.2619ZM221.664 32.1791V31.6194C221.469 31.3576 221.098 31.2267 220.719 31.2267C220.255 31.2267 219.875 31.47 219.875 31.9085C219.875 32.3286 220.254 32.5713 220.719 32.5713C221.098 32.5713 221.469 32.4404 221.664 32.178V32.1791Z" fill="black"/>
<path d="M223.619 32.6741L224.128 31.8433C224.453 32.1515 225.12 32.4592 225.676 32.4592C226.185 32.4592 226.426 32.2541 226.426 31.9742C226.426 31.2269 223.767 31.834 223.767 30.0606C223.767 29.3046 224.425 28.6424 225.601 28.6424C226.256 28.6333 226.894 28.8509 227.408 29.2588L226.936 30.0705C226.665 29.7813 226.158 29.5479 225.611 29.5479C225.185 29.5479 224.907 29.7437 224.907 29.9957C224.907 30.6683 227.557 30.1081 227.557 31.9284C227.557 32.7499 226.862 33.3756 225.62 33.3756C224.842 33.3745 224.091 33.1127 223.619 32.6741Z" fill="black"/>
<path d="M230.826 33.2619V27.0356H232.141V33.2619H230.826Z" fill="black"/>
<path d="M236.357 33.2621V30.5347C236.357 29.909 236.032 29.6941 235.532 29.6941C235.333 29.6963 235.137 29.7457 234.96 29.8381C234.783 29.9306 234.63 30.0636 234.513 30.2265V33.26H233.336V28.7537H234.513V29.3417C234.708 29.118 234.949 28.9396 235.22 28.8187C235.49 28.6978 235.783 28.6373 236.079 28.6413C237.061 28.6413 237.534 29.2015 237.534 30.0792V33.2621H236.357Z" fill="black"/>
<path d="M238.932 32.142V29.7893H238.19V28.7528H238.932V27.52H240.118V28.7528H241.025V29.7893H240.118V31.8245C240.118 32.1043 240.266 32.3192 240.525 32.3192C240.701 32.3192 240.868 32.2538 240.933 32.1883L241.183 33.0846C241.007 33.2433 240.692 33.3742 240.201 33.3742C239.375 33.3742 238.932 32.9449 238.932 32.142Z" fill="black"/>
<path d="M241.544 31.0031C241.544 29.6939 242.498 28.6411 243.86 28.6411C245.194 28.6411 246.103 29.6497 246.103 31.1242V31.386H242.776C242.85 31.955 243.304 32.4312 244.064 32.4312C244.443 32.4312 244.972 32.2632 245.259 31.9833L245.779 32.747C245.334 33.1578 244.629 33.3727 243.934 33.3727C242.572 33.3743 241.544 32.4508 241.544 31.0031ZM243.86 29.5848C243.128 29.5848 242.813 30.1358 242.757 30.5836H244.963C244.935 30.1538 244.638 29.5843 243.86 29.5843V29.5848Z" fill="black"/>
<path d="M246.955 33.2619V27.0356H248.131V33.2619H246.955Z" fill="black"/>
<path d="M249.177 27.5583C249.177 27.418 249.219 27.2809 249.296 27.1643C249.373 27.0477 249.483 26.9568 249.612 26.9031C249.74 26.8494 249.882 26.8354 250.018 26.8627C250.155 26.8901 250.28 26.9576 250.379 27.0568C250.477 27.156 250.544 27.2824 250.571 27.4199C250.599 27.5575 250.585 27.7001 250.531 27.8296C250.478 27.9592 250.388 28.07 250.272 28.1479C250.156 28.2258 250.02 28.2674 249.881 28.2674C249.695 28.2657 249.517 28.1904 249.385 28.0578C249.254 27.9252 249.179 27.7458 249.177 27.5583ZM249.298 33.2619V28.7534H250.474V33.2619H249.298Z" fill="black"/>
<path d="M254.412 33.2623L253.393 31.742L252.364 33.2634H251.058L252.642 30.9483L251.15 28.7549H252.466L253.393 30.1453L254.31 28.7549H255.626L254.124 30.9483L255.726 33.2623H254.412Z" fill="black"/>
<path d="M255.709 31.0031C255.709 29.6939 256.663 28.6411 258.025 28.6411C259.359 28.6411 260.268 29.6497 260.268 31.1242V31.386H256.941C257.015 31.955 257.47 32.4312 258.229 32.4312C258.608 32.4312 259.137 32.2632 259.425 31.9833L259.944 32.747C259.499 33.1578 258.795 33.3727 258.099 33.3727C256.737 33.3743 255.709 32.4508 255.709 31.0031ZM258.025 29.5848C257.293 29.5848 256.978 30.1358 256.923 30.5836H259.128C259.1 30.1538 258.803 29.5843 258.025 29.5843V29.5848Z" fill="black"/>
<path d="M264.139 33.2621V30.5347C264.139 29.909 263.814 29.6941 263.315 29.6941C263.115 29.6964 262.919 29.7458 262.742 29.8382C262.565 29.9307 262.412 30.0637 262.296 30.2265V33.2599H261.119V28.7537H262.296V29.3417C262.491 29.1181 262.732 28.9398 263.003 28.8189C263.273 28.698 263.566 28.6374 263.862 28.6413C264.844 28.6413 265.316 29.2015 265.316 30.0792V33.2621H264.139Z" fill="black"/>
<path d="M266.718 32.142V29.7893H265.976V28.7528H266.718V27.52H267.904V28.7528H268.812V29.7893H267.904V31.8245C267.904 32.1043 268.051 32.3192 268.311 32.3192C268.487 32.3192 268.654 32.2538 268.719 32.1883L268.969 33.0846C268.793 33.2433 268.478 33.3742 267.987 33.3742C267.16 33.3742 266.718 32.9449 266.718 32.142Z" fill="black"/>
<path d="M269.326 31.0031C269.326 29.6939 270.281 28.6411 271.644 28.6411C272.977 28.6411 273.886 29.6497 273.886 31.1242V31.386H270.562C270.636 31.955 271.09 32.4312 271.85 32.4312C272.229 32.4312 272.758 32.2632 273.045 31.9833L273.564 32.747C273.12 33.1578 272.415 33.3727 271.72 33.3727C270.355 33.3743 269.326 32.4508 269.326 31.0031ZM271.644 29.5848C270.911 29.5848 270.596 30.1358 270.541 30.5836H272.746C272.718 30.1538 272.422 29.5843 271.645 29.5843L271.644 29.5848Z" fill="black"/>
<path d="M274.348 32.6741L274.858 31.8433C275.182 32.1515 275.85 32.4592 276.405 32.4592C276.915 32.4592 277.156 32.2541 277.156 31.9742C277.156 31.2269 274.496 31.834 274.496 30.0606C274.496 29.3046 275.154 28.6424 276.331 28.6424C276.985 28.6333 277.623 28.8509 278.138 29.2588L277.666 30.0705C277.395 29.7813 276.887 29.5479 276.34 29.5479C275.914 29.5479 275.636 29.7437 275.636 29.9957C275.636 30.6683 278.287 30.1081 278.287 31.9284C278.287 32.7499 277.592 33.3756 276.35 33.3756C275.571 33.3745 274.821 33.1127 274.348 32.6741Z" fill="black"/>
<path d="M66.7021 25.7945V34.1945V42.5945H75.0399V34.1945V25.7945V17.3945H66.7021V25.7945Z" fill="black"/>
<path d="M33.3511 34.1939V42.5939H41.6888V34.1939V25.7939H33.3511V34.1939Z" fill="black"/>
<path d="M66.702 0.594238H58.3643V8.99424H66.702V0.594238Z" fill="black"/>
<path d="M108.391 17.3941V25.7941V34.1941H100.053H91.7152V25.7941V17.3941V8.99414H83.3774V17.3941V25.7941V34.1941V42.5941H91.7152H100.053H108.391H116.729V34.1941V25.7941V17.3941V8.99414H108.391V17.3941Z" fill="black"/>
<path d="M33.3511 8.99414V17.3941H41.6889H50.0266V25.7941V34.1941V42.5941H58.3644V34.1941V25.7941V17.3941V8.99414H50.0266H33.3511Z" fill="black"/>
<path d="M0 8.99414V17.3941V25.7941V34.1941V42.5941H8.33777H16.6755H25.0133V34.1941H16.6755H8.33777V25.7941V17.3941H16.6755H25.0133V8.99414H16.6755H0Z" fill="black"/>
<path d="M150.08 25.7939V34.1939H141.742H133.404H125.066V42.5939H133.404H141.742H150.08H158.417V34.1939V25.7939H150.08Z" fill="black"/>
<path d="M133.404 17.4386H141.742H150.08H158.417V9.03857H150.08H141.742H133.404H125.066V17.4375V17.4386V25.8375H133.404V17.4386Z" fill="black"/>
</svg>